<svg xmlns="http://www.w3.org/2000/svg" width="155" height="155" viewBox="0 0 155 155"><defs><style>.cls-1{fill:#0e9548;}.cls-2{fill:#e62021;}</style></defs><title>INSHORE</title><g id="Capa_2" data-name="Capa 2"><g id="Capa_1-2" data-name="Capa 1"><path class="cls-1" d="M77.5,0A77.5,77.5,0,1,0,155,77.5,77.5,77.5,0,0,0,77.5,0Zm0,147A68.5,68.5,0,1,1,146,78.5,68.5,68.5,0,0,1,77.5,147Z"/><polygon class="cls-1" points="59 53 36 108 45 108 64 63 65 55 59 53"/><polygon class="cls-2" points="79 37 44 118 59 118 85 57 87 39 79 37"/><path class="cls-1" d="M101,27,59,124H91l17-65,4-29Zm4,33L88,121H64l39-90,6,1Z"/></g></g></svg>