<svg xmlns="http://www.w3.org/2000/svg" width="442.88" height="566.99" viewBox="0 0 442.88 566.99"><defs><style>.cls-1{fill:#fff;}</style></defs><title>esailing_logo_blanco</title><g id="Capa_2" data-name="Capa 2"><g id="Capa_2-2" data-name="Capa 2"><g id="Velas"><path id="Vela_suelta" data-name="Vela suelta" class="cls-1" d="M198.1,406.94c80.47,1.46,95.3.77,199.42-9.7C290.71,228.29,225,95.78,189.69,0,173.84,67.18,161.08,128.2,151,180.93,148.05,243.86,155.19,305.06,198.1,406.94Z"/><path class="cls-1" d="M148.52,164.24c-68.17,103.75-95.75,146.08-123,268,5,41,167,17,188,16C191.28,402.93,137.15,295.31,148.52,164.24Z"/></g><g id="spain"><polygon class="cls-1" points="345.38 473.41 326.98 473.41 326.98 483.21 342.92 483.21 342.92 488.19 329.48 488.19 329.48 487.83 326.98 487.83 326.98 490.58 345.38 490.58 345.38 480.81 329.42 480.81 329.42 475.61 342.92 475.61 342.92 475.96 345.38 475.96 345.38 473.41"/><path class="cls-1" d="M354.59,473.41v17.17H357v-4.91h14.72V473.41Zm14.71,9.81H357v-7.37H369.3Z"/><path class="cls-1" d="M390.82,473.41H387.7L378.5,490v.57h2.4l2.52-4.28H395l2.56,4.28h3V490Zm-6.3,10.4L389.2,476l4.59,7.82Z"/><rect class="cls-1" x="409.11" y="473.41" width="2.49" height="17.17"/><polygon class="cls-1" points="422.68 490.58 425.1 490.58 425.1 476.5 439.21 490.61 442.88 490.61 442.88 473.41 440.39 473.41 440.4 488.23 425.6 473.43 422.68 473.43 422.68 490.58"/></g><g id="esailing"><path id="e_g" class="cls-1" d="M431.38,496.15a15.5,15.5,0,0,0-.12,1.65,5.66,5.66,0,0,0-3.57-1.75c-.24,0-22.56,0-23.67.05-6.61.17-10.53,4.31-11.12,10.32l0,.36c-.1,1.69-.12,3.39-.12,5.08v5.75c0,3.91.09,7.83.1,11.74v.5c0,.22,0,.43,0,.65,0,0,0,0,0,0s0,0,0,0,0,0,0,0v3c.06.66.13,1.31.19,2,1.37,6.08,5.81,9.84,12.16,10.11,1.47.06,2.93.1,4.4.1s10.86,0,13.3,0a24.09,24.09,0,0,0,7.43-.88,11.18,11.18,0,0,0,1.11-.55s0,7.6-.05,10.53a1.26,1.26,0,0,1-.78,1.07c-.12,0-31.72-.22-45.31-.22-115.17,0-348.23.22-351.93.22-14-6.89-21-20.82-21.34-34.08,1.39-20.06,12.21-29,20.6-33.73a33.89,33.89,0,0,1,17.49-4,36.48,36.48,0,0,1,4.16.18,33.87,33.87,0,0,1,13.46,4,43.24,43.24,0,0,1,14.42,13.77c4.29,8.38,8.49,17.16,2.77,33-13.72,0-32.31-.35-46-.33h0a7.12,7.12,0,0,1-3-.78c-.07-8.44,0-16.79-.05-25.23a2.31,2.31,0,0,1,2.48-2.32s15.48-.05,17,0l8.17,0,.16,8.69-20.65,0c0,9.38,0,2.3,0,10.9,3.48,0,20.65,0,20.65,0,9-2.1,11.11-7,11.38-11.14-.15-7.9-.14-5-.15-7.9,0-4.31-6.27-11.3-12-11.4-2.35-.05-4.71-.08-7.06-.09-3.85,0-7.69,0-11.54,0q-3.73,0-7.47.08c-6.48.11-12.11,5.21-12.31,11.31-.24,7.42-.05,14.86,0,22.29,0,2.48-.53,5,.63,7.38,2,6,6.26,9,13.35,9h1c16,0,37.94,0,54,0,.38,0,6.43-13.44,6.19-21.8-1-34.27-23.32-49.59-49-51.78a41.62,41.62,0,0,0-12.76,1.21C15,478.45,0,501.37,0,522.38.21,533.11,3.31,553.31,27.33,567l406-.33c3.79-1.17,6.86-3,8.18-6.45a9.84,9.84,0,0,0,.65-2.73c0-.55-.29-61.24-.29-61.24Zm.11,26.77v.17l-.06,10.64v.4l-.05,0-.57.59h-1c-7.29,0-14.58.06-21.87.07h-1c-2.78,0-3.47-.2-3.73-2.56,0-.48-.07-21,.07-23.55.07-1.81,2-2.24,3.29-2.26h.21l5.62,0h9.83l5.5,0h.71c1.91,0,3,.51,3.14,2.27a5,5,0,0,1,0,.69C431.55,513.92,431.52,518.42,431.49,522.92ZM93.79,499a1.54,1.54,0,0,1,.08.19L93.6,499Z"/><path id="n" class="cls-1" d="M375.68,545.53h-10.5s0-23.65,0-34.17c0-4.87,0-4.87-4.92-4.87-6.64,0-13.28.08-19.92,0-2.56-.05-4.06.55-4,3.06.11,10.93-.07,36-.07,36H325.94l.12-49,10.05-.07.07,1.38c-.19-2.48,18.77-1.63,27.1-1.67,7.53,0,11.91,4.44,12.16,12.3C375.8,520.3,375.68,545.53,375.68,545.53Z"/><path class="cls-1" d="M254.08,545.51c-4.75-.09-6.76,0-10.72,0-.48-1.44.06-35.15,0-49.43,4.45,0,9.06.08,10.72,0C254.27,505,254.08,545.51,254.08,545.51Z"/><polygon class="cls-1" points="254.17 490.93 243.16 490.9 243.16 479.87 254.17 479.92 254.17 490.93"/><polygon id="l" class="cls-1" points="281.18 545.53 270.88 545.51 271.07 461.41 281.22 461.51 281.18 545.53"/><path class="cls-1" d="M308.94,545.51c-4.75-.09-6.76,0-10.72,0-.48-1.44.06-35.15,0-49.43,4.45,0,9.06.08,10.72,0C309.13,505,308.94,545.51,308.94,545.51Z"/><polygon class="cls-1" points="309.03 490.93 298.02 490.9 298.02 479.87 309.03 479.92 309.03 490.93"/><path id="a" class="cls-1" d="M226.79,508.2c-.2-7.6-5.12-12.29-12.68-12.47-2.18-.05-4.37-.08-6.55-.1-1.85,0-3.71,0-5.56,0l-5.64,0c-2.38,0-4.77.1-7.15.1-11.77.12-12.6,11.42-12.47,18.4,6.25-.18,10.45.08,10.65.1,0,0,0-2.58.07-5.49,0-2.5,1.17-2.08,3.59-2.2h.13c1.62,0,3.24,0,4.86,0,5.23,0,10.47,0,15.7,0,1.51,0,2.88.15,3.39,2,.62,2.23-1,2.78-2.47,3.47-2.83.84-5.68,1.62-8.48,2.53-6.77,2.2-13.52,4.46-20.28,6.7-3.49.69-6.59,2.08-7.42,5.89a16.47,16.47,0,0,0,.67,10.18c1.51,5,5.21,8,10,8.09,5.07.13,10.17.54,15.26.51,4.21,0,13.16.36,13.37-2.23.17,1.27.1,2.13.17,2.17,2,0,2.74,0,4.52,0h0a37.6,37.6,0,0,0,5.85-.1C226.3,533.8,227.12,520.14,226.79,508.2Zm-10.52,25.34c-.71,1.27-1.91,1.32-3.17,1.31h-.73q-10.6,0-21.21,0h-.31c-1.14,0-3.46,0-3.32-2,.1-1.48,2.89-3.33,4.6-3.86,5.76-1.76,11.5-3.59,17.25-5.41,0,0,4.28-1.52,5-1.43,1.2-.1,1.53.2,1.72,1.15a33.12,33.12,0,0,1,.15,4.79c0,1.21,0,2.41,0,3.62,0,.06,0,.74,0,.74S216.27,533.17,216.27,533.54Z"/><path id="s" class="cls-1" d="M159.87,525.13c.11-6-2.89-9.85-8.94-9.87h-1c-8,0-16,0-24.06,0-4.34,0-4.36,0-4.66-4.39.35-4.36.35-4.37,4.72-4.37h26.65l7.14-.08c0-3.76,0-6.44,0-10.76h-2.64c-11.05.07-22.11,0-33.16.05h-1a13,13,0,0,0-10.48,4.8c-3,3.66-4,17.17-1.44,21.4,1.72,3.08,4.42,4.29,7.86,4.27h1c7.45,0,14.89,0,22.34,0,.52,0,2.27.05,2.72.06,5,.1,3.76.86,4,7.3a2.63,2.63,0,0,1-2.43,1.32h-.11c-.41,0-.83,0-1.25,0l-34.8.08c0,6.49-.07,3,0,10.73,3.88,0,8.3.05,10.69,0,8.49,0,17,0,25.47,0h1c6.29,0,10.67-3.38,12.37-9.24C160.2,532.17,159.79,529.05,159.87,525.13Zm-10,8.39a1.09,1.09,0,0,0,0-.18.13.13,0,0,0,.06-.07C149.89,533.35,149.88,533.44,149.86,533.52Z"/></g></g></g></svg>