<svg xmlns="http://www.w3.org/2000/svg" width="172.24" height="54.73" viewBox="0 0 172.24 54.73"><defs><style>.cls-1{fill:#fff;}</style></defs><title>Recurso 7</title><g id="Capa_2" data-name="Capa 2"><g id="Capa_2-2" data-name="Capa 2"><g id="Velas"><path id="Vela_suelta" data-name="Vela suelta" class="cls-1" d="M20.71,48.83c9.66.18,11.43.09,23.93-1.16C31.82,27.39,23.94,11.49,19.7,0c-1.9,8.06-3.43,15.38-4.65,21.71C14.7,29.26,15.56,36.61,20.71,48.83Z"/><path class="cls-1" d="M14.76,19.71C6.58,32.16,3.27,37.24,0,51.87c.6,4.92,20,2,22.56,1.92C19.89,48.35,13.4,35.44,14.76,19.71Z"/></g><g id="spain"><polygon class="cls-1" points="145.53 20.41 140.49 20.41 140.49 23.09 144.85 23.09 144.85 24.46 141.17 24.46 141.17 24.36 140.49 24.36 140.49 25.11 145.53 25.11 145.53 22.44 141.16 22.44 141.16 21.01 144.85 21.01 144.85 21.11 145.53 21.11 145.53 20.41"/><path class="cls-1" d="M148.05,20.41v4.7h.67V23.77h4V20.41Zm4,2.69h-3.36v-2h3.36Z"/><path class="cls-1" d="M158,20.41h-.86L154.6,25v.15h.66l.69-1.17h3.17l.7,1.17h.82V25Zm-1.73,2.85,1.28-2.14,1.26,2.14Z"/><rect class="cls-1" x="162.99" y="20.41" width="0.68" height="4.7"/><polygon class="cls-1" points="166.71 25.11 167.37 25.11 167.37 21.26 171.24 25.12 172.24 25.12 172.24 20.41 171.56 20.41 171.56 24.47 167.51 20.41 166.71 20.41 166.71 25.11"/></g><g id="esailing"><path id="e_g" class="cls-1" d="M169.09,26.64a3.38,3.38,0,0,0,0,.45,1.63,1.63,0,0,0-1-.48l-6.49,0a2.93,2.93,0,0,0-3,2.83v.09c0,.47,0,.93,0,1.4v1.57c0,1.07,0,2.15,0,3.22v.31h0v.83c0,.18,0,.36.05.54a3.39,3.39,0,0,0,3.33,2.77l1.21,0h3.64a6.44,6.44,0,0,0,2-.24l.3-.15s0,2.08,0,2.89a.34.34,0,0,1-.22.29S160.19,43,156.47,43c-31.56,0-95.41.06-96.42.06a10.38,10.38,0,0,1-.21-18.58,9.31,9.31,0,0,1,4.8-1.09,11.11,11.11,0,0,1,1.14.05,9.31,9.31,0,0,1,3.68,1.09,11.86,11.86,0,0,1,4,3.77c1.18,2.3,2.33,4.71.76,9-3.76,0-8.85-.09-12.61-.09h0a2,2,0,0,1-.83-.21c0-2.31,0-4.6,0-6.91a.63.63,0,0,1,.68-.64h6.89l0,2.38H62.68c0,2.57,0,.63,0,3h5.66c2.48-.57,3-1.91,3.12-3.05,0-2.17,0-1.38,0-2.17a3.94,3.94,0,0,0-3.28-3.12l-1.94,0c-1,0-2.1,0-3.16,0l-2,0a3.4,3.4,0,0,0-3.37,3.1c-.06,2,0,4.07,0,6.11a4.32,4.32,0,0,0,.17,2,3.41,3.41,0,0,0,3.66,2.45h.27c4.39,0,10.4,0,14.79,0a15.49,15.49,0,0,0,1.7-6C77.93,24.81,71.8,20.61,64.78,20a11.52,11.52,0,0,0-3.5.34C55,21.79,50.9,28.07,50.9,33.83c.06,2.94.91,8.47,7.49,12.22L169.62,46a3.17,3.17,0,0,0,2.24-1.77,2.43,2.43,0,0,0,.17-.74c0-.16-.08-16.78-.08-16.78Zm0,7.34v0c0,1,0,1.95,0,2.92v.11h0l-.15.16h-.28l-6,0h-.27c-.77,0-1-.05-1-.7,0-.13,0-5.77,0-6.45,0-.5.54-.62.9-.62h6c.52,0,.81.14.86.62a1.15,1.15,0,0,1,0,.19C169.14,31.51,169.13,32.74,169.12,34ZM76.6,27.42s0,0,0,0l-.07-.06Z"/><path id="n" class="cls-1" d="M153.83,40.17H151s0-6.48,0-9.36c0-1.34,0-1.34-1.35-1.34-1.82,0-3.64,0-5.46,0-.7,0-1.11.15-1.11.84,0,3,0,9.87,0,9.87H140.2l0-13.43,2.76,0,0,.38c0-.68,5.14-.44,7.42-.45,2.06,0,3.26,1.21,3.33,3.37C153.86,33.26,153.83,40.17,153.83,40.17Z"/><path class="cls-1" d="M120.51,40.16c-1.3,0-1.85,0-2.93,0-.14-.39,0-9.63,0-13.54,1.22,0,2.48,0,2.93,0C120.57,29.07,120.51,40.16,120.51,40.16Z"/><polygon class="cls-1" points="120.54 25.21 117.52 25.2 117.52 22.18 120.54 22.19 120.54 25.21"/><polygon id="l" class="cls-1" points="127.94 40.17 125.12 40.16 125.17 17.12 127.95 17.15 127.94 40.17"/><path class="cls-1" d="M135.54,40.16c-1.3,0-1.85,0-2.93,0-.13-.39,0-9.63,0-13.54,1.22,0,2.48,0,2.93,0C135.6,29.07,135.54,40.16,135.54,40.16Z"/><polygon class="cls-1" points="135.57 25.21 132.55 25.2 132.55 22.18 135.57 22.19 135.57 25.21"/><path id="a" class="cls-1" d="M113,29.94a3.31,3.31,0,0,0-3.48-3.41c-.59,0-1.19,0-1.79,0H104.7l-2,0c-3.23,0-3.45,3.12-3.42,5,1.72-.05,2.87,0,2.92,0s0-.71,0-1.51.32-.57,1-.6h1.36c1.44,0,2.87,0,4.3,0,.42,0,.79,0,.93.55s-.27.77-.67,1c-.78.23-1.56.44-2.33.69-1.85.6-3.7,1.22-5.55,1.83-1,.19-1.81.57-2,1.62a4.53,4.53,0,0,0,.19,2.79,2.87,2.87,0,0,0,2.74,2.21c1.39,0,2.79.15,4.18.14,1.16,0,3.61.1,3.67-.61,0,.35,0,.59,0,.6h1.24a10.66,10.66,0,0,0,1.61,0C112.9,37,113.13,33.21,113,29.94Zm-2.88,7a.85.85,0,0,1-.87.35h-6.1c-.31,0-1,0-.91-.55,0-.41.79-.91,1.26-1.06,1.58-.48,3.15-1,4.73-1.48a9.14,9.14,0,0,1,1.36-.4c.32,0,.41.06.47.32a10.23,10.23,0,0,1,0,1.31c0,.34,0,.66,0,1v.2S110.16,36.78,110.16,36.89Z"/><path id="s" class="cls-1" d="M94.7,34.58c0-1.64-.79-2.7-2.45-2.7H85.39c-1.19,0-1.2,0-1.28-1.2.1-1.19.1-1.2,1.29-1.2h7.31l2,0c0-1,0-1.76,0-2.95h-.72c-3,0-6.06,0-9.09,0h-.27a3.57,3.57,0,0,0-2.87,1.31c-.83,1-1.08,4.71-.4,5.87a2.28,2.28,0,0,0,2.16,1.17h.27c2,0,4.08,0,6.12,0l.75,0c1.36,0,1,.24,1.09,2a.72.72,0,0,1-.67.36h-.37l-9.54,0c0,1.78,0,.82,0,2.94,1.06,0,2.28,0,2.93,0h7.25a3.31,3.31,0,0,0,3.39-2.53C94.79,36.51,94.68,35.66,94.7,34.58ZM92,36.88v-.05s0,0,0,0A.17.17,0,0,1,92,36.88Z"/></g></g></g></svg>